<mxfile host="65bd71144e">
    <diagram id="OnhkKmYZrm_GUtnlPqk8" name="Page-1">
        <mxGraphModel dx="1951" dy="447" grid="1" gridSize="10" guides="1" tooltips="1" connect="1" arrows="1" fold="1" page="1" pageScale="1" pageWidth="850" pageHeight="1100" math="0" shadow="0">
            <root>
                <mxCell id="0"/>
                <mxCell id="1" parent="0"/>
                <mxCell id="rwegm_WXVYTCT-KPLo7b-15" style="edgeStyle=orthogonalEdgeStyle;rounded=0;orthogonalLoop=1;jettySize=auto;html=1;entryX=1;entryY=0.5;entryDx=0;entryDy=0;" parent="1" source="rwegm_WXVYTCT-KPLo7b-14" target="rwegm_WXVYTCT-KPLo7b-14" edge="1">
                    <mxGeometry relative="1" as="geometry">
                        <mxPoint x="130" y="30" as="targetPoint"/>
                    </mxGeometry>
                </mxCell>
                <mxCell id="rwegm_WXVYTCT-KPLo7b-14" value="100" style="ellipse;whiteSpace=wrap;html=1;" parent="1" vertex="1">
                    <mxGeometry x="150" y="80" width="60" height="40" as="geometry"/>
                </mxCell>
                <mxCell id="rwegm_WXVYTCT-KPLo7b-18" style="edgeStyle=orthogonalEdgeStyle;rounded=0;orthogonalLoop=1;jettySize=auto;html=1;entryX=0;entryY=0.5;entryDx=0;entryDy=0;" parent="1" source="rwegm_WXVYTCT-KPLo7b-17" target="rwegm_WXVYTCT-KPLo7b-14" edge="1">
                    <mxGeometry relative="1" as="geometry"/>
                </mxCell>
                <mxCell id="rwegm_WXVYTCT-KPLo7b-17" value="110" style="ellipse;whiteSpace=wrap;html=1;" parent="1" vertex="1">
                    <mxGeometry x="90" y="160" width="60" height="40" as="geometry"/>
                </mxCell>
                <mxCell id="rwegm_WXVYTCT-KPLo7b-22" value="" style="edgeStyle=orthogonalEdgeStyle;rounded=0;orthogonalLoop=1;jettySize=auto;html=1;entryX=1;entryY=0.5;entryDx=0;entryDy=0;" parent="1" source="rwegm_WXVYTCT-KPLo7b-19" target="rwegm_WXVYTCT-KPLo7b-17" edge="1">
                    <mxGeometry relative="1" as="geometry"/>
                </mxCell>
                <mxCell id="rwegm_WXVYTCT-KPLo7b-19" value="010" style="ellipse;whiteSpace=wrap;html=1;" parent="1" vertex="1">
                    <mxGeometry x="140" y="220" width="60" height="40" as="geometry"/>
                </mxCell>
                <mxCell id="rwegm_WXVYTCT-KPLo7b-21" style="edgeStyle=orthogonalEdgeStyle;rounded=0;orthogonalLoop=1;jettySize=auto;html=1;entryX=0;entryY=0.5;entryDx=0;entryDy=0;" parent="1" source="rwegm_WXVYTCT-KPLo7b-20" target="rwegm_WXVYTCT-KPLo7b-17" edge="1">
                    <mxGeometry relative="1" as="geometry">
                        <Array as="points">
                            <mxPoint x="60" y="180"/>
                        </Array>
                    </mxGeometry>
                </mxCell>
                <mxCell id="rwegm_WXVYTCT-KPLo7b-20" value="001" style="ellipse;whiteSpace=wrap;html=1;" parent="1" vertex="1">
                    <mxGeometry x="30" y="220" width="60" height="40" as="geometry"/>
                </mxCell>
                <mxCell id="rwegm_WXVYTCT-KPLo7b-28" style="edgeStyle=orthogonalEdgeStyle;rounded=0;orthogonalLoop=1;jettySize=auto;html=1;entryX=1;entryY=0.5;entryDx=0;entryDy=0;" parent="1" source="rwegm_WXVYTCT-KPLo7b-23" target="rwegm_WXVYTCT-KPLo7b-14" edge="1">
                    <mxGeometry relative="1" as="geometry">
                        <Array as="points">
                            <mxPoint x="290" y="100"/>
                        </Array>
                    </mxGeometry>
                </mxCell>
                <mxCell id="rwegm_WXVYTCT-KPLo7b-23" value="101" style="ellipse;whiteSpace=wrap;html=1;" parent="1" vertex="1">
                    <mxGeometry x="230" y="150" width="60" height="40" as="geometry"/>
                </mxCell>
                <mxCell id="rwegm_WXVYTCT-KPLo7b-29" style="edgeStyle=orthogonalEdgeStyle;rounded=0;orthogonalLoop=1;jettySize=auto;html=1;entryX=1;entryY=0.5;entryDx=0;entryDy=0;" parent="1" source="rwegm_WXVYTCT-KPLo7b-24" target="rwegm_WXVYTCT-KPLo7b-23" edge="1">
                    <mxGeometry relative="1" as="geometry">
                        <mxPoint x="340" y="170" as="targetPoint"/>
                        <Array as="points">
                            <mxPoint x="340" y="170"/>
                        </Array>
                    </mxGeometry>
                </mxCell>
                <mxCell id="rwegm_WXVYTCT-KPLo7b-24" value="111" style="ellipse;whiteSpace=wrap;html=1;" parent="1" vertex="1">
                    <mxGeometry x="310" y="220" width="60" height="40" as="geometry"/>
                </mxCell>
                <mxCell id="rwegm_WXVYTCT-KPLo7b-26" value="" style="edgeStyle=orthogonalEdgeStyle;rounded=0;orthogonalLoop=1;jettySize=auto;html=1;entryX=0;entryY=0.5;entryDx=0;entryDy=0;" parent="1" source="rwegm_WXVYTCT-KPLo7b-25" target="rwegm_WXVYTCT-KPLo7b-24" edge="1">
                    <mxGeometry relative="1" as="geometry"/>
                </mxCell>
                <mxCell id="rwegm_WXVYTCT-KPLo7b-25" value="011" style="ellipse;whiteSpace=wrap;html=1;" parent="1" vertex="1">
                    <mxGeometry x="260" y="280" width="60" height="40" as="geometry"/>
                </mxCell>
                <mxCell id="rwegm_WXVYTCT-KPLo7b-30" value="000" style="ellipse;whiteSpace=wrap;html=1;" parent="1" vertex="1">
                    <mxGeometry x="365" y="90" width="60" height="40" as="geometry"/>
                </mxCell>
                <mxCell id="rwegm_WXVYTCT-KPLo7b-31" style="edgeStyle=orthogonalEdgeStyle;rounded=0;orthogonalLoop=1;jettySize=auto;html=1;entryX=1;entryY=0.5;entryDx=0;entryDy=0;" parent="1" source="rwegm_WXVYTCT-KPLo7b-30" target="rwegm_WXVYTCT-KPLo7b-30" edge="1">
                    <mxGeometry relative="1" as="geometry"/>
                </mxCell>
                <mxCell id="rwegm_WXVYTCT-KPLo7b-33" value="&lt;table border=&quot;1&quot; width=&quot;100%&quot; cellpadding=&quot;4&quot; style=&quot;width: 100% ; height: 100% ; border-collapse: collapse&quot;&gt;&lt;tbody&gt;&lt;tr style=&quot;background-color: rgb(167, 201, 66); border: 1px solid rgb(152, 191, 33);&quot;&gt;&lt;th align=&quot;left&quot;&gt;X1&lt;/th&gt;&lt;th align=&quot;left&quot;&gt;X2&lt;/th&gt;&lt;th align=&quot;left&quot;&gt;X3&lt;/th&gt;&lt;/tr&gt;&lt;tr&gt;&lt;td&gt;0&lt;/td&gt;&lt;td&gt;0&lt;/td&gt;&lt;td&gt;0&lt;/td&gt;&lt;/tr&gt;&lt;tr style=&quot;border: 1px solid #98bf21&quot;&gt;&lt;td&gt;0&lt;/td&gt;&lt;td&gt;0&lt;/td&gt;&lt;td&gt;1&lt;/td&gt;&lt;/tr&gt;&lt;tr&gt;&lt;td&gt;0&lt;/td&gt;&lt;td&gt;1&lt;/td&gt;&lt;td&gt;0&lt;/td&gt;&lt;/tr&gt;&lt;tr&gt;&lt;td&gt;0&lt;/td&gt;&lt;td&gt;1&lt;/td&gt;&lt;td&gt;1&lt;/td&gt;&lt;/tr&gt;&lt;tr&gt;&lt;td&gt;1&lt;/td&gt;&lt;td&gt;0&lt;/td&gt;&lt;td&gt;0&lt;/td&gt;&lt;/tr&gt;&lt;tr&gt;&lt;td&gt;1&lt;/td&gt;&lt;td&gt;0&lt;/td&gt;&lt;td&gt;1&lt;/td&gt;&lt;/tr&gt;&lt;tr&gt;&lt;td&gt;1&lt;/td&gt;&lt;td&gt;1&lt;/td&gt;&lt;td&gt;0&lt;/td&gt;&lt;/tr&gt;&lt;tr&gt;&lt;td&gt;1&lt;/td&gt;&lt;td&gt;1&lt;/td&gt;&lt;td&gt;1&lt;/td&gt;&lt;/tr&gt;&lt;/tbody&gt;&lt;/table&gt;" style="text;html=1;strokeColor=#c0c0c0;fillColor=#ffffff;overflow=fill;rounded=0;glass=1;fontColor=#212121;" parent="1" vertex="1">
                    <mxGeometry x="650" y="185" width="230" height="230" as="geometry"/>
                </mxCell>
                <mxCell id="rwegm_WXVYTCT-KPLo7b-34" value="&lt;table border=&quot;1&quot; width=&quot;100%&quot; cellpadding=&quot;4&quot; style=&quot;width: 100% ; height: 100% ; border-collapse: collapse&quot;&gt;&lt;tbody&gt;&lt;tr style=&quot;background-color: rgb(167, 201, 66); border: 1px solid rgb(152, 191, 33);&quot;&gt;&lt;th align=&quot;left&quot;&gt;f1&lt;/th&gt;&lt;th align=&quot;left&quot;&gt;f2&lt;/th&gt;&lt;th align=&quot;left&quot;&gt;f3&lt;/th&gt;&lt;/tr&gt;&lt;tr style=&quot;border: 1px solid #98bf21&quot;&gt;&lt;td&gt;0&lt;/td&gt;&lt;td&gt;0&lt;/td&gt;&lt;td&gt;0&lt;/td&gt;&lt;/tr&gt;&lt;tr&gt;&lt;td&gt;1&lt;/td&gt;&lt;td&gt;1&lt;/td&gt;&lt;td&gt;0&lt;/td&gt;&lt;/tr&gt;&lt;tr&gt;&lt;td&gt;1&lt;/td&gt;&lt;td&gt;1&lt;/td&gt;&lt;td&gt;0&lt;/td&gt;&lt;/tr&gt;&lt;tr&gt;&lt;td&gt;1&lt;/td&gt;&lt;td&gt;1&lt;/td&gt;&lt;td&gt;1&lt;/td&gt;&lt;/tr&gt;&lt;tr&gt;&lt;td&gt;1&lt;/td&gt;&lt;td&gt;0&lt;/td&gt;&lt;td&gt;0&lt;/td&gt;&lt;/tr&gt;&lt;tr&gt;&lt;td&gt;1&lt;/td&gt;&lt;td&gt;0&lt;/td&gt;&lt;td&gt;0&lt;/td&gt;&lt;/tr&gt;&lt;tr&gt;&lt;td&gt;1&lt;/td&gt;&lt;td&gt;0&lt;/td&gt;&lt;td&gt;0&lt;/td&gt;&lt;/tr&gt;&lt;tr&gt;&lt;td&gt;1&lt;/td&gt;&lt;td&gt;0&lt;/td&gt;&lt;td&gt;1&lt;/td&gt;&lt;/tr&gt;&lt;/tbody&gt;&lt;/table&gt;" style="text;html=1;strokeColor=#c0c0c0;fillColor=#ffffff;overflow=fill;rounded=0;fontColor=#030303;" parent="1" vertex="1">
                    <mxGeometry x="880" y="185" width="220" height="230" as="geometry"/>
                </mxCell>
                <mxCell id="6" style="edgeStyle=orthogonalEdgeStyle;rounded=0;orthogonalLoop=1;jettySize=auto;html=1;fontSize=18;" parent="1" source="rwegm_WXVYTCT-KPLo7b-36" edge="1">
                    <mxGeometry relative="1" as="geometry">
                        <mxPoint x="100" y="440" as="targetPoint"/>
                    </mxGeometry>
                </mxCell>
                <mxCell id="rwegm_WXVYTCT-KPLo7b-36" value="X1" style="ellipse;whiteSpace=wrap;html=1;aspect=fixed;rounded=0;glass=0;fillColor=#60a917;strokeColor=#2D7600;fontColor=#ffffff;" parent="1" vertex="1">
                    <mxGeometry x="180" y="360" width="60" height="60" as="geometry"/>
                </mxCell>
                <mxCell id="rwegm_WXVYTCT-KPLo7b-37" style="edgeStyle=orthogonalEdgeStyle;rounded=0;orthogonalLoop=1;jettySize=auto;html=1;" parent="1" source="rwegm_WXVYTCT-KPLo7b-36" edge="1">
                    <mxGeometry relative="1" as="geometry">
                        <Array as="points">
                            <mxPoint x="210" y="340"/>
                            <mxPoint x="270" y="340"/>
                            <mxPoint x="270" y="369"/>
                        </Array>
                        <mxPoint x="231" y="369" as="targetPoint"/>
                    </mxGeometry>
                </mxCell>
                <mxCell id="rwegm_WXVYTCT-KPLo7b-47" style="edgeStyle=orthogonalEdgeStyle;rounded=0;orthogonalLoop=1;jettySize=auto;html=1;" parent="1" source="rwegm_WXVYTCT-KPLo7b-39" target="rwegm_WXVYTCT-KPLo7b-40" edge="1">
                    <mxGeometry relative="1" as="geometry">
                        <Array as="points">
                            <mxPoint x="220" y="470"/>
                            <mxPoint x="220" y="470"/>
                        </Array>
                    </mxGeometry>
                </mxCell>
                <mxCell id="8" style="edgeStyle=orthogonalEdgeStyle;rounded=0;orthogonalLoop=1;jettySize=auto;html=1;exitX=1;exitY=0;exitDx=0;exitDy=0;entryX=0;entryY=1;entryDx=0;entryDy=0;fontSize=18;" parent="1" source="rwegm_WXVYTCT-KPLo7b-39" target="rwegm_WXVYTCT-KPLo7b-36" edge="1">
                    <mxGeometry relative="1" as="geometry"/>
                </mxCell>
                <mxCell id="rwegm_WXVYTCT-KPLo7b-39" value="X2" style="ellipse;whiteSpace=wrap;html=1;aspect=fixed;rounded=0;glass=0;fillColor=#1ba1e2;strokeColor=#006EAF;fontColor=#ffffff;" parent="1" vertex="1">
                    <mxGeometry x="70" y="440" width="60" height="60" as="geometry"/>
                </mxCell>
                <mxCell id="rwegm_WXVYTCT-KPLo7b-46" style="edgeStyle=orthogonalEdgeStyle;rounded=0;orthogonalLoop=1;jettySize=auto;html=1;" parent="1" source="rwegm_WXVYTCT-KPLo7b-40" target="rwegm_WXVYTCT-KPLo7b-36" edge="1">
                    <mxGeometry relative="1" as="geometry">
                        <Array as="points">
                            <mxPoint x="290" y="400"/>
                        </Array>
                    </mxGeometry>
                </mxCell>
                <mxCell id="rwegm_WXVYTCT-KPLo7b-48" style="edgeStyle=orthogonalEdgeStyle;rounded=0;orthogonalLoop=1;jettySize=auto;html=1;" parent="1" source="rwegm_WXVYTCT-KPLo7b-40" target="rwegm_WXVYTCT-KPLo7b-39" edge="1">
                    <mxGeometry relative="1" as="geometry">
                        <Array as="points">
                            <mxPoint x="140" y="490"/>
                            <mxPoint x="140" y="490"/>
                        </Array>
                    </mxGeometry>
                </mxCell>
                <mxCell id="rwegm_WXVYTCT-KPLo7b-40" value="X3" style="ellipse;whiteSpace=wrap;html=1;aspect=fixed;rounded=0;glass=0;fillColor=#a20025;strokeColor=#6F0000;fontColor=#ffffff;" parent="1" vertex="1">
                    <mxGeometry x="260" y="450" width="60" height="60" as="geometry"/>
                </mxCell>
                <mxCell id="rwegm_WXVYTCT-KPLo7b-50" style="edgeStyle=orthogonalEdgeStyle;rounded=0;orthogonalLoop=1;jettySize=auto;html=1;entryX=1;entryY=0.5;entryDx=0;entryDy=0;" parent="1" source="rwegm_WXVYTCT-KPLo7b-40" target="rwegm_WXVYTCT-KPLo7b-40" edge="1">
                    <mxGeometry relative="1" as="geometry">
                        <Array as="points">
                            <mxPoint x="300" y="440"/>
                            <mxPoint x="370" y="440"/>
                            <mxPoint x="370" y="480"/>
                        </Array>
                    </mxGeometry>
                </mxCell>
                <mxCell id="rwegm_WXVYTCT-KPLo7b-53" value="&lt;font style=&quot;font-size: 15px;&quot;&gt;f1 = X1 v X2 v X3&lt;/font&gt;" style="text;html=1;strokeColor=none;fillColor=none;align=center;verticalAlign=middle;whiteSpace=wrap;rounded=0;glass=0;fontSize=15;" parent="1" vertex="1">
                    <mxGeometry x="60" y="340" width="140" height="20" as="geometry"/>
                </mxCell>
                <mxCell id="rwegm_WXVYTCT-KPLo7b-54" value="&lt;font style=&quot;font-size: 15px;&quot;&gt;f3 = X2 ^ X3&lt;/font&gt;" style="text;html=1;strokeColor=none;fillColor=none;align=center;verticalAlign=middle;whiteSpace=wrap;rounded=0;glass=0;fontSize=15;" parent="1" vertex="1">
                    <mxGeometry x="230" y="520" width="130" height="20" as="geometry"/>
                </mxCell>
                <mxCell id="rwegm_WXVYTCT-KPLo7b-55" value="&lt;font style=&quot;font-size: 15px;&quot;&gt;f2 = !X1 ^ (X2 v X3)&lt;/font&gt;" style="text;html=1;strokeColor=none;fillColor=none;align=center;verticalAlign=middle;whiteSpace=wrap;rounded=0;glass=0;fontSize=15;" parent="1" vertex="1">
                    <mxGeometry x="30" y="520" width="150" height="40" as="geometry"/>
                </mxCell>
                <mxCell id="rwegm_WXVYTCT-KPLo7b-70" value="&lt;font style=&quot;font-size: 18px;&quot;&gt;Transition matrix&lt;/font&gt;" style="text;html=1;strokeColor=none;fillColor=none;align=center;verticalAlign=middle;whiteSpace=wrap;rounded=0;glass=0;fontSize=18;" parent="1" vertex="1">
                    <mxGeometry x="1190" y="470" width="200" height="20" as="geometry"/>
                </mxCell>
                <mxCell id="rwegm_WXVYTCT-KPLo7b-71" value="&lt;font style=&quot;font-size: 13px&quot;&gt;P0 = 0.729&lt;/font&gt;" style="text;html=1;strokeColor=none;fillColor=none;align=center;verticalAlign=middle;whiteSpace=wrap;rounded=0;glass=0;" parent="1" vertex="1">
                    <mxGeometry x="950" y="540" width="80" height="20" as="geometry"/>
                </mxCell>
                <mxCell id="rwegm_WXVYTCT-KPLo7b-72" value="&lt;font style=&quot;font-size: 13px&quot;&gt;P1 = 0.081&lt;/font&gt;" style="text;html=1;strokeColor=none;fillColor=none;align=center;verticalAlign=middle;whiteSpace=wrap;rounded=0;glass=0;" parent="1" vertex="1">
                    <mxGeometry x="955" y="580" width="70" height="20" as="geometry"/>
                </mxCell>
                <mxCell id="rwegm_WXVYTCT-KPLo7b-73" value="&lt;font style=&quot;font-size: 13px&quot;&gt;P2 = 0.009&lt;/font&gt;" style="text;html=1;strokeColor=none;fillColor=none;align=center;verticalAlign=middle;whiteSpace=wrap;rounded=0;glass=0;" parent="1" vertex="1">
                    <mxGeometry x="960" y="630" width="70" height="20" as="geometry"/>
                </mxCell>
                <mxCell id="rwegm_WXVYTCT-KPLo7b-74" value="&lt;font style=&quot;font-size: 13px&quot;&gt;P3 = 0.001&lt;/font&gt;" style="text;html=1;strokeColor=none;fillColor=none;align=center;verticalAlign=middle;whiteSpace=wrap;rounded=0;glass=0;" parent="1" vertex="1">
                    <mxGeometry x="960" y="670" width="70" height="20" as="geometry"/>
                </mxCell>
                <mxCell id="rwegm_WXVYTCT-KPLo7b-76" value="" style="shape=table;html=1;whiteSpace=wrap;startSize=0;container=1;collapsible=0;childLayout=tableLayout;rounded=0;glass=0;" parent="1" vertex="1">
                    <mxGeometry x="1590" y="470" width="60" height="320" as="geometry"/>
                </mxCell>
                <mxCell id="rwegm_WXVYTCT-KPLo7b-77" value="" style="shape=partialRectangle;html=1;whiteSpace=wrap;collapsible=0;dropTarget=0;pointerEvents=0;fillColor=none;top=0;left=0;bottom=0;right=0;points=[[0,0.5],[1,0.5]];portConstraint=eastwest;" parent="rwegm_WXVYTCT-KPLo7b-76" vertex="1">
                    <mxGeometry width="60" height="40" as="geometry"/>
                </mxCell>
                <mxCell id="rwegm_WXVYTCT-KPLo7b-80" value="0.125" style="shape=partialRectangle;html=1;whiteSpace=wrap;connectable=0;fillColor=none;top=0;left=0;bottom=0;right=0;overflow=hidden;" parent="rwegm_WXVYTCT-KPLo7b-77" vertex="1">
                    <mxGeometry width="60" height="40" as="geometry">
                        <mxRectangle width="60" height="40" as="alternateBounds"/>
                    </mxGeometry>
                </mxCell>
                <mxCell id="rwegm_WXVYTCT-KPLo7b-81" value="" style="shape=partialRectangle;html=1;whiteSpace=wrap;collapsible=0;dropTarget=0;pointerEvents=0;fillColor=none;top=0;left=0;bottom=0;right=0;points=[[0,0.5],[1,0.5]];portConstraint=eastwest;" parent="rwegm_WXVYTCT-KPLo7b-76" vertex="1">
                    <mxGeometry y="40" width="60" height="40" as="geometry"/>
                </mxCell>
                <mxCell id="rwegm_WXVYTCT-KPLo7b-84" value="0.125" style="shape=partialRectangle;html=1;whiteSpace=wrap;connectable=0;fillColor=none;top=0;left=0;bottom=0;right=0;overflow=hidden;" parent="rwegm_WXVYTCT-KPLo7b-81" vertex="1">
                    <mxGeometry width="60" height="40" as="geometry">
                        <mxRectangle width="60" height="40" as="alternateBounds"/>
                    </mxGeometry>
                </mxCell>
                <mxCell id="rwegm_WXVYTCT-KPLo7b-85" value="" style="shape=partialRectangle;html=1;whiteSpace=wrap;collapsible=0;dropTarget=0;pointerEvents=0;fillColor=none;top=0;left=0;bottom=0;right=0;points=[[0,0.5],[1,0.5]];portConstraint=eastwest;" parent="rwegm_WXVYTCT-KPLo7b-76" vertex="1">
                    <mxGeometry y="80" width="60" height="40" as="geometry"/>
                </mxCell>
                <mxCell id="rwegm_WXVYTCT-KPLo7b-88" value="0.125" style="shape=partialRectangle;html=1;whiteSpace=wrap;connectable=0;fillColor=none;top=0;left=0;bottom=0;right=0;overflow=hidden;" parent="rwegm_WXVYTCT-KPLo7b-85" vertex="1">
                    <mxGeometry width="60" height="40" as="geometry">
                        <mxRectangle width="60" height="40" as="alternateBounds"/>
                    </mxGeometry>
                </mxCell>
                <mxCell id="rwegm_WXVYTCT-KPLo7b-89" style="shape=partialRectangle;html=1;whiteSpace=wrap;collapsible=0;dropTarget=0;pointerEvents=0;fillColor=none;top=0;left=0;bottom=0;right=0;points=[[0,0.5],[1,0.5]];portConstraint=eastwest;" parent="rwegm_WXVYTCT-KPLo7b-76" vertex="1">
                    <mxGeometry y="120" width="60" height="40" as="geometry"/>
                </mxCell>
                <mxCell id="rwegm_WXVYTCT-KPLo7b-90" value="0.125" style="shape=partialRectangle;html=1;whiteSpace=wrap;connectable=0;fillColor=none;top=0;left=0;bottom=0;right=0;overflow=hidden;" parent="rwegm_WXVYTCT-KPLo7b-89" vertex="1">
                    <mxGeometry width="60" height="40" as="geometry">
                        <mxRectangle width="60" height="40" as="alternateBounds"/>
                    </mxGeometry>
                </mxCell>
                <mxCell id="rwegm_WXVYTCT-KPLo7b-91" style="shape=partialRectangle;html=1;whiteSpace=wrap;collapsible=0;dropTarget=0;pointerEvents=0;fillColor=none;top=0;left=0;bottom=0;right=0;points=[[0,0.5],[1,0.5]];portConstraint=eastwest;" parent="rwegm_WXVYTCT-KPLo7b-76" vertex="1">
                    <mxGeometry y="160" width="60" height="40" as="geometry"/>
                </mxCell>
                <mxCell id="rwegm_WXVYTCT-KPLo7b-92" value="0.125" style="shape=partialRectangle;html=1;whiteSpace=wrap;connectable=0;fillColor=none;top=0;left=0;bottom=0;right=0;overflow=hidden;" parent="rwegm_WXVYTCT-KPLo7b-91" vertex="1">
                    <mxGeometry width="60" height="40" as="geometry">
                        <mxRectangle width="60" height="40" as="alternateBounds"/>
                    </mxGeometry>
                </mxCell>
                <mxCell id="rwegm_WXVYTCT-KPLo7b-93" style="shape=partialRectangle;html=1;whiteSpace=wrap;collapsible=0;dropTarget=0;pointerEvents=0;fillColor=none;top=0;left=0;bottom=0;right=0;points=[[0,0.5],[1,0.5]];portConstraint=eastwest;" parent="rwegm_WXVYTCT-KPLo7b-76" vertex="1">
                    <mxGeometry y="200" width="60" height="40" as="geometry"/>
                </mxCell>
                <mxCell id="rwegm_WXVYTCT-KPLo7b-94" value="0.125" style="shape=partialRectangle;html=1;whiteSpace=wrap;connectable=0;fillColor=none;top=0;left=0;bottom=0;right=0;overflow=hidden;" parent="rwegm_WXVYTCT-KPLo7b-93" vertex="1">
                    <mxGeometry width="60" height="40" as="geometry">
                        <mxRectangle width="60" height="40" as="alternateBounds"/>
                    </mxGeometry>
                </mxCell>
                <mxCell id="rwegm_WXVYTCT-KPLo7b-95" style="shape=partialRectangle;html=1;whiteSpace=wrap;collapsible=0;dropTarget=0;pointerEvents=0;fillColor=none;top=0;left=0;bottom=0;right=0;points=[[0,0.5],[1,0.5]];portConstraint=eastwest;" parent="rwegm_WXVYTCT-KPLo7b-76" vertex="1">
                    <mxGeometry y="240" width="60" height="40" as="geometry"/>
                </mxCell>
                <mxCell id="rwegm_WXVYTCT-KPLo7b-96" value="0.125" style="shape=partialRectangle;html=1;whiteSpace=wrap;connectable=0;fillColor=none;top=0;left=0;bottom=0;right=0;overflow=hidden;" parent="rwegm_WXVYTCT-KPLo7b-95" vertex="1">
                    <mxGeometry width="60" height="40" as="geometry">
                        <mxRectangle width="60" height="40" as="alternateBounds"/>
                    </mxGeometry>
                </mxCell>
                <mxCell id="rwegm_WXVYTCT-KPLo7b-97" style="shape=partialRectangle;html=1;whiteSpace=wrap;collapsible=0;dropTarget=0;pointerEvents=0;fillColor=none;top=0;left=0;bottom=0;right=0;points=[[0,0.5],[1,0.5]];portConstraint=eastwest;" parent="rwegm_WXVYTCT-KPLo7b-76" vertex="1">
                    <mxGeometry y="280" width="60" height="40" as="geometry"/>
                </mxCell>
                <mxCell id="rwegm_WXVYTCT-KPLo7b-98" value="0.125" style="shape=partialRectangle;html=1;whiteSpace=wrap;connectable=0;fillColor=none;top=0;left=0;bottom=0;right=0;overflow=hidden;" parent="rwegm_WXVYTCT-KPLo7b-97" vertex="1">
                    <mxGeometry width="60" height="40" as="geometry">
                        <mxRectangle width="60" height="40" as="alternateBounds"/>
                    </mxGeometry>
                </mxCell>
                <mxCell id="rwegm_WXVYTCT-KPLo7b-117" value="" style="shape=table;html=1;whiteSpace=wrap;startSize=0;container=1;collapsible=0;childLayout=tableLayout;" parent="1" vertex="1">
                    <mxGeometry x="-390" y="1560" width="640" height="80" as="geometry"/>
                </mxCell>
                <mxCell id="rwegm_WXVYTCT-KPLo7b-129" style="shape=partialRectangle;html=1;whiteSpace=wrap;collapsible=0;dropTarget=0;pointerEvents=0;fillColor=none;top=0;left=0;bottom=0;right=0;points=[[0,0.5],[1,0.5]];portConstraint=eastwest;" parent="rwegm_WXVYTCT-KPLo7b-117" vertex="1">
                    <mxGeometry width="640" height="40" as="geometry"/>
                </mxCell>
                <mxCell id="rwegm_WXVYTCT-KPLo7b-130" value="0" style="shape=partialRectangle;html=1;whiteSpace=wrap;connectable=0;overflow=hidden;fillColor=none;top=0;left=0;bottom=0;right=0;" parent="rwegm_WXVYTCT-KPLo7b-129" vertex="1">
                    <mxGeometry width="81" height="40" as="geometry">
                        <mxRectangle width="81" height="40" as="alternateBounds"/>
                    </mxGeometry>
                </mxCell>
                <mxCell id="rwegm_WXVYTCT-KPLo7b-131" value="1" style="shape=partialRectangle;html=1;whiteSpace=wrap;connectable=0;overflow=hidden;fillColor=none;top=0;left=0;bottom=0;right=0;" parent="rwegm_WXVYTCT-KPLo7b-129" vertex="1">
                    <mxGeometry x="81" width="80" height="40" as="geometry">
                        <mxRectangle width="80" height="40" as="alternateBounds"/>
                    </mxGeometry>
                </mxCell>
                <mxCell id="rwegm_WXVYTCT-KPLo7b-132" value="2" style="shape=partialRectangle;html=1;whiteSpace=wrap;connectable=0;overflow=hidden;fillColor=none;top=0;left=0;bottom=0;right=0;" parent="rwegm_WXVYTCT-KPLo7b-129" vertex="1">
                    <mxGeometry x="161" width="78" height="40" as="geometry">
                        <mxRectangle width="78" height="40" as="alternateBounds"/>
                    </mxGeometry>
                </mxCell>
                <mxCell id="rwegm_WXVYTCT-KPLo7b-133" value="3" style="shape=partialRectangle;html=1;whiteSpace=wrap;connectable=0;overflow=hidden;fillColor=none;top=0;left=0;bottom=0;right=0;" parent="rwegm_WXVYTCT-KPLo7b-129" vertex="1">
                    <mxGeometry x="239" width="81" height="40" as="geometry">
                        <mxRectangle width="81" height="40" as="alternateBounds"/>
                    </mxGeometry>
                </mxCell>
                <mxCell id="rwegm_WXVYTCT-KPLo7b-134" value="4" style="shape=partialRectangle;html=1;whiteSpace=wrap;connectable=0;overflow=hidden;fillColor=none;top=0;left=0;bottom=0;right=0;" parent="rwegm_WXVYTCT-KPLo7b-129" vertex="1">
                    <mxGeometry x="320" width="81" height="40" as="geometry">
                        <mxRectangle width="81" height="40" as="alternateBounds"/>
                    </mxGeometry>
                </mxCell>
                <mxCell id="rwegm_WXVYTCT-KPLo7b-135" value="5" style="shape=partialRectangle;html=1;whiteSpace=wrap;connectable=0;overflow=hidden;fillColor=none;top=0;left=0;bottom=0;right=0;" parent="rwegm_WXVYTCT-KPLo7b-129" vertex="1">
                    <mxGeometry x="401" width="80" height="40" as="geometry">
                        <mxRectangle width="80" height="40" as="alternateBounds"/>
                    </mxGeometry>
                </mxCell>
                <mxCell id="rwegm_WXVYTCT-KPLo7b-136" value="6" style="shape=partialRectangle;html=1;whiteSpace=wrap;connectable=0;overflow=hidden;fillColor=none;top=0;left=0;bottom=0;right=0;" parent="rwegm_WXVYTCT-KPLo7b-129" vertex="1">
                    <mxGeometry x="481" width="78" height="40" as="geometry">
                        <mxRectangle width="78" height="40" as="alternateBounds"/>
                    </mxGeometry>
                </mxCell>
                <mxCell id="rwegm_WXVYTCT-KPLo7b-137" value="7" style="shape=partialRectangle;html=1;whiteSpace=wrap;connectable=0;overflow=hidden;fillColor=none;top=0;left=0;bottom=0;right=0;" parent="rwegm_WXVYTCT-KPLo7b-129" vertex="1">
                    <mxGeometry x="559" width="81" height="40" as="geometry">
                        <mxRectangle width="81" height="40" as="alternateBounds"/>
                    </mxGeometry>
                </mxCell>
                <mxCell id="rwegm_WXVYTCT-KPLo7b-118" value="" style="shape=partialRectangle;html=1;whiteSpace=wrap;collapsible=0;dropTarget=0;pointerEvents=0;fillColor=none;top=0;left=0;bottom=0;right=0;points=[[0,0.5],[1,0.5]];portConstraint=eastwest;" parent="rwegm_WXVYTCT-KPLo7b-117" vertex="1">
                    <mxGeometry y="40" width="640" height="40" as="geometry"/>
                </mxCell>
                <mxCell id="rwegm_WXVYTCT-KPLo7b-119" value="0.18793078" style="shape=partialRectangle;html=1;whiteSpace=wrap;connectable=0;overflow=hidden;fillColor=none;top=0;left=0;bottom=0;right=0;" parent="rwegm_WXVYTCT-KPLo7b-118" vertex="1">
                    <mxGeometry width="81" height="40" as="geometry">
                        <mxRectangle width="81" height="40" as="alternateBounds"/>
                    </mxGeometry>
                </mxCell>
                <mxCell id="rwegm_WXVYTCT-KPLo7b-120" value="0.0274794" style="shape=partialRectangle;html=1;whiteSpace=wrap;connectable=0;overflow=hidden;fillColor=none;top=0;left=0;bottom=0;right=0;" parent="rwegm_WXVYTCT-KPLo7b-118" vertex="1">
                    <mxGeometry x="81" width="80" height="40" as="geometry">
                        <mxRectangle width="80" height="40" as="alternateBounds"/>
                    </mxGeometry>
                </mxCell>
                <mxCell id="rwegm_WXVYTCT-KPLo7b-121" value="0.02915416" style="shape=partialRectangle;html=1;whiteSpace=wrap;connectable=0;overflow=hidden;fillColor=none;top=0;left=0;bottom=0;right=0;" parent="rwegm_WXVYTCT-KPLo7b-118" vertex="1">
                    <mxGeometry x="161" width="78" height="40" as="geometry">
                        <mxRectangle width="78" height="40" as="alternateBounds"/>
                    </mxGeometry>
                </mxCell>
                <mxCell id="rwegm_WXVYTCT-KPLo7b-122" value="0.01055034" style="shape=partialRectangle;html=1;whiteSpace=wrap;connectable=0;overflow=hidden;fillColor=none;top=0;left=0;bottom=0;right=0;" parent="rwegm_WXVYTCT-KPLo7b-118" vertex="1">
                    <mxGeometry x="239" width="81" height="40" as="geometry">
                        <mxRectangle width="81" height="40" as="alternateBounds"/>
                    </mxGeometry>
                </mxCell>
                <mxCell id="rwegm_WXVYTCT-KPLo7b-123" value="0.55227296" style="shape=partialRectangle;html=1;whiteSpace=wrap;connectable=0;overflow=hidden;fillColor=none;top=0;left=0;bottom=0;right=0;" parent="rwegm_WXVYTCT-KPLo7b-118" vertex="1">
                    <mxGeometry x="320" width="81" height="40" as="geometry">
                        <mxRectangle width="81" height="40" as="alternateBounds"/>
                    </mxGeometry>
                </mxCell>
                <mxCell id="rwegm_WXVYTCT-KPLo7b-124" value="0.07195403" style="shape=partialRectangle;html=1;whiteSpace=wrap;connectable=0;overflow=hidden;fillColor=none;top=0;left=0;bottom=0;right=0;" parent="rwegm_WXVYTCT-KPLo7b-118" vertex="1">
                    <mxGeometry x="401" width="80" height="40" as="geometry">
                        <mxRectangle width="80" height="40" as="alternateBounds"/>
                    </mxGeometry>
                </mxCell>
                <mxCell id="rwegm_WXVYTCT-KPLo7b-125" value="0.09307695" style="shape=partialRectangle;html=1;whiteSpace=wrap;connectable=0;overflow=hidden;fillColor=none;top=0;left=0;bottom=0;right=0;" parent="rwegm_WXVYTCT-KPLo7b-118" vertex="1">
                    <mxGeometry x="481" width="78" height="40" as="geometry">
                        <mxRectangle width="78" height="40" as="alternateBounds"/>
                    </mxGeometry>
                </mxCell>
                <mxCell id="rwegm_WXVYTCT-KPLo7b-126" value="0.02758137" style="shape=partialRectangle;html=1;whiteSpace=wrap;connectable=0;overflow=hidden;fillColor=none;top=0;left=0;bottom=0;right=0;" parent="rwegm_WXVYTCT-KPLo7b-118" vertex="1">
                    <mxGeometry x="559" width="81" height="40" as="geometry">
                        <mxRectangle width="81" height="40" as="alternateBounds"/>
                    </mxGeometry>
                </mxCell>
                <mxCell id="rwegm_WXVYTCT-KPLo7b-127" value="&lt;font style=&quot;font-size: 19px&quot;&gt;v * T = v&lt;br&gt;v * T - v = 0&lt;br&gt;v (T - 1) = 0&lt;/font&gt;" style="text;html=1;strokeColor=none;fillColor=none;align=center;verticalAlign=middle;whiteSpace=wrap;rounded=0;glass=0;" parent="1" vertex="1">
                    <mxGeometry x="580" y="540" width="135" height="80" as="geometry"/>
                </mxCell>
                <mxCell id="rwegm_WXVYTCT-KPLo7b-128" value="&lt;font style=&quot;font-size: 19px&quot;&gt;sum&lt;font style=&quot;font-size: 19px&quot;&gt;(&lt;/font&gt;v) = 1&lt;/font&gt;" style="text;html=1;strokeColor=none;fillColor=none;align=center;verticalAlign=middle;whiteSpace=wrap;rounded=0;glass=0;" parent="1" vertex="1">
                    <mxGeometry x="730" y="545" width="130" height="70" as="geometry"/>
                </mxCell>
                <mxCell id="rwegm_WXVYTCT-KPLo7b-161" value="&lt;table border=&quot;1&quot; width=&quot;100%&quot; cellpadding=&quot;4&quot; style=&quot;width: 100% ; height: 100% ; border-collapse: collapse&quot;&gt;&lt;tbody&gt;&lt;tr style=&quot;background-color: rgb(167 , 201 , 66) ; border: 1px solid rgb(152 , 191 , 33)&quot;&gt;&lt;td&gt;&lt;br&gt;&lt;/td&gt;&lt;th style=&quot;text-align: center&quot;&gt;0&lt;/th&gt;&lt;th style=&quot;text-align: center&quot;&gt;1&lt;/th&gt;&lt;th style=&quot;text-align: center&quot;&gt;2&lt;/th&gt;&lt;td style=&quot;text-align: center&quot;&gt;&lt;b&gt;3&lt;/b&gt;&lt;/td&gt;&lt;td style=&quot;text-align: center&quot;&gt;&lt;b&gt;4&lt;/b&gt;&lt;/td&gt;&lt;td style=&quot;text-align: center&quot;&gt;&lt;b&gt;5&lt;/b&gt;&lt;/td&gt;&lt;td style=&quot;text-align: center&quot;&gt;&lt;b&gt;6&lt;/b&gt;&lt;/td&gt;&lt;td style=&quot;text-align: center&quot;&gt;&lt;b&gt;7&lt;/b&gt;&lt;/td&gt;&lt;/tr&gt;&lt;tr style=&quot;border: 1px solid #98bf21&quot;&gt;&lt;td&gt;&lt;b&gt;0&lt;/b&gt;&lt;/td&gt;&lt;td&gt;1&lt;/td&gt;&lt;td&gt;0&lt;br&gt;&lt;/td&gt;&lt;td&gt;0&lt;/td&gt;&lt;td&gt;0&lt;/td&gt;&lt;td&gt;0&lt;/td&gt;&lt;td&gt;0&lt;/td&gt;&lt;td&gt;0&lt;/td&gt;&lt;td&gt;0&lt;/td&gt;&lt;/tr&gt;&lt;tr&gt;&lt;td&gt;&lt;b&gt;1&lt;/b&gt;&lt;/td&gt;&lt;td&gt;0&lt;/td&gt;&lt;td&gt;0&lt;/td&gt;&lt;td&gt;0&lt;/td&gt;&lt;td&gt;0&lt;/td&gt;&lt;td&gt;0&lt;/td&gt;&lt;td&gt;0&lt;/td&gt;&lt;td&gt;1&lt;/td&gt;&lt;td&gt;0&lt;/td&gt;&lt;/tr&gt;&lt;tr&gt;&lt;td&gt;&lt;b&gt;2&lt;/b&gt;&lt;/td&gt;&lt;td&gt;0&lt;/td&gt;&lt;td&gt;0&lt;/td&gt;&lt;td&gt;0&lt;/td&gt;&lt;td&gt;0&lt;/td&gt;&lt;td&gt;0&lt;/td&gt;&lt;td&gt;0&lt;/td&gt;&lt;td&gt;1&lt;/td&gt;&lt;td&gt;0&lt;/td&gt;&lt;/tr&gt;&lt;tr style=&quot;background-color: #eaf2d3 ; border: 1px solid #98bf21&quot;&gt;&lt;td&gt;&lt;b&gt;3&lt;/b&gt;&lt;/td&gt;&lt;td&gt;0&lt;/td&gt;&lt;td&gt;0&lt;/td&gt;&lt;td&gt;0&lt;/td&gt;&lt;td&gt;0&lt;/td&gt;&lt;td&gt;0&lt;/td&gt;&lt;td&gt;0&lt;/td&gt;&lt;td&gt;0&lt;/td&gt;&lt;td&gt;1&lt;/td&gt;&lt;/tr&gt;&lt;tr&gt;&lt;td&gt;&lt;b&gt;4&lt;/b&gt;&lt;/td&gt;&lt;td&gt;0&lt;/td&gt;&lt;td&gt;0&lt;/td&gt;&lt;td&gt;0&lt;/td&gt;&lt;td&gt;0&lt;/td&gt;&lt;td&gt;1&lt;/td&gt;&lt;td&gt;0&lt;/td&gt;&lt;td&gt;0&lt;/td&gt;&lt;td&gt;0&lt;/td&gt;&lt;/tr&gt;&lt;tr&gt;&lt;td&gt;&lt;b&gt;5&lt;/b&gt;&lt;/td&gt;&lt;td&gt;0&lt;/td&gt;&lt;td&gt;0&lt;/td&gt;&lt;td&gt;0&lt;/td&gt;&lt;td&gt;0&lt;/td&gt;&lt;td&gt;1&lt;/td&gt;&lt;td&gt;0&lt;/td&gt;&lt;td&gt;0&lt;/td&gt;&lt;td&gt;0&lt;/td&gt;&lt;/tr&gt;&lt;tr&gt;&lt;td&gt;&lt;b&gt;6&lt;/b&gt;&lt;/td&gt;&lt;td&gt;0&lt;/td&gt;&lt;td&gt;0&lt;/td&gt;&lt;td&gt;0&lt;/td&gt;&lt;td&gt;0&lt;/td&gt;&lt;td&gt;1&lt;/td&gt;&lt;td&gt;0&lt;/td&gt;&lt;td&gt;0&lt;/td&gt;&lt;td&gt;0&lt;/td&gt;&lt;/tr&gt;&lt;tr&gt;&lt;td&gt;&lt;b&gt;7&lt;/b&gt;&lt;/td&gt;&lt;td&gt;0&lt;/td&gt;&lt;td&gt;0&lt;/td&gt;&lt;td&gt;0&lt;/td&gt;&lt;td&gt;0&lt;/td&gt;&lt;td&gt;0&lt;/td&gt;&lt;td&gt;1&lt;/td&gt;&lt;td&gt;0&lt;/td&gt;&lt;td&gt;0&lt;/td&gt;&lt;/tr&gt;&lt;/tbody&gt;&lt;/table&gt;" style="text;html=1;strokeColor=#c0c0c0;fillColor=#ffffff;overflow=fill;rounded=0;glass=0;fontColor=#383838;" parent="1" vertex="1">
                    <mxGeometry x="1050" y="500" width="490" height="290" as="geometry"/>
                </mxCell>
                <mxCell id="YxBtDd1Pz-nvjuu5p4Sz-1" value="&lt;font style=&quot;font-size: 17px&quot;&gt;pij(m)*pij(n) = P(m)*P(n) = P^m*P^n&lt;/font&gt;" style="text;html=1;strokeColor=none;fillColor=none;align=center;verticalAlign=middle;whiteSpace=wrap;rounded=0;" parent="1" vertex="1">
                    <mxGeometry x="-630" y="85" width="330" height="50" as="geometry"/>
                </mxCell>
                <mxCell id="YxBtDd1Pz-nvjuu5p4Sz-2" value="1" style="ellipse;whiteSpace=wrap;html=1;aspect=fixed;" parent="1" vertex="1">
                    <mxGeometry x="-660" y="180" width="40" height="40" as="geometry"/>
                </mxCell>
                <mxCell id="YxBtDd1Pz-nvjuu5p4Sz-8" style="edgeStyle=orthogonalEdgeStyle;rounded=0;orthogonalLoop=1;jettySize=auto;html=1;entryX=1;entryY=1;entryDx=0;entryDy=0;" parent="1" source="YxBtDd1Pz-nvjuu5p4Sz-3" target="YxBtDd1Pz-nvjuu5p4Sz-2" edge="1">
                    <mxGeometry relative="1" as="geometry">
                        <Array as="points">
                            <mxPoint x="-590" y="214"/>
                            <mxPoint x="-590" y="214"/>
                        </Array>
                    </mxGeometry>
                </mxCell>
                <mxCell id="YxBtDd1Pz-nvjuu5p4Sz-3" value="2" style="ellipse;whiteSpace=wrap;html=1;aspect=fixed;" parent="1" vertex="1">
                    <mxGeometry x="-570" y="180" width="40" height="40" as="geometry"/>
                </mxCell>
                <mxCell id="YxBtDd1Pz-nvjuu5p4Sz-7" style="edgeStyle=orthogonalEdgeStyle;rounded=0;orthogonalLoop=1;jettySize=auto;html=1;entryX=1;entryY=1;entryDx=0;entryDy=0;exitX=0;exitY=1;exitDx=0;exitDy=0;" parent="1" source="YxBtDd1Pz-nvjuu5p4Sz-4" target="YxBtDd1Pz-nvjuu5p4Sz-3" edge="1">
                    <mxGeometry relative="1" as="geometry">
                        <mxPoint x="-500" y="290" as="targetPoint"/>
                        <Array as="points">
                            <mxPoint x="-459" y="214"/>
                        </Array>
                    </mxGeometry>
                </mxCell>
                <mxCell id="YxBtDd1Pz-nvjuu5p4Sz-4" value="3" style="ellipse;whiteSpace=wrap;html=1;aspect=fixed;" parent="1" vertex="1">
                    <mxGeometry x="-465" y="190" width="40" height="40" as="geometry"/>
                </mxCell>
                <mxCell id="YxBtDd1Pz-nvjuu5p4Sz-5" value="" style="endArrow=classic;html=1;exitX=1;exitY=0.5;exitDx=0;exitDy=0;entryX=0;entryY=0;entryDx=0;entryDy=0;" parent="1" source="YxBtDd1Pz-nvjuu5p4Sz-2" target="YxBtDd1Pz-nvjuu5p4Sz-3" edge="1">
                    <mxGeometry width="50" height="50" relative="1" as="geometry">
                        <mxPoint x="-270" y="330" as="sourcePoint"/>
                        <mxPoint x="-220" y="280" as="targetPoint"/>
                    </mxGeometry>
                </mxCell>
                <mxCell id="YxBtDd1Pz-nvjuu5p4Sz-6" value="" style="endArrow=classic;html=1;exitX=1;exitY=0.5;exitDx=0;exitDy=0;entryX=0;entryY=0;entryDx=0;entryDy=0;" parent="1" source="YxBtDd1Pz-nvjuu5p4Sz-3" target="YxBtDd1Pz-nvjuu5p4Sz-4" edge="1">
                    <mxGeometry width="50" height="50" relative="1" as="geometry">
                        <mxPoint x="-740" y="220" as="sourcePoint"/>
                        <mxPoint x="-654.1421356237311" y="205.85786437626894" as="targetPoint"/>
                        <Array as="points"/>
                    </mxGeometry>
                </mxCell>
                <mxCell id="GUSUyGbQDgwtFWIFWdwy-1" value="&lt;span style=&quot;color: rgb(255, 255, 255); font-family: &amp;quot;segoe ui historic&amp;quot;, &amp;quot;segoe ui&amp;quot;, helvetica, arial, sans-serif; font-size: 15px; font-style: normal; font-weight: 400; letter-spacing: normal; text-indent: 0px; text-transform: none; word-spacing: 0px; background-color: rgb(0, 132, 255); display: inline; float: none;&quot;&gt;c=0 m1=0 m2=1 s11=1 s12=1 s13=0 s21=0 s22=0 s31=1 s32=0&lt;/span&gt;" style="text;whiteSpace=wrap;html=1;" parent="1" vertex="1">
                    <mxGeometry x="-700" y="310" width="450" height="30" as="geometry"/>
                </mxCell>
                <mxCell id="2" value="State Transition Diagram" style="text;html=1;strokeColor=none;fillColor=none;align=center;verticalAlign=middle;whiteSpace=wrap;rounded=0;fontSize=18;" parent="1" vertex="1">
                    <mxGeometry x="110" y="20" width="290" height="20" as="geometry"/>
                </mxCell>
                <mxCell id="7" style="edgeStyle=orthogonalEdgeStyle;rounded=0;orthogonalLoop=1;jettySize=auto;html=1;exitX=0;exitY=0;exitDx=0;exitDy=0;fontSize=18;" parent="1" source="rwegm_WXVYTCT-KPLo7b-39" target="rwegm_WXVYTCT-KPLo7b-39" edge="1">
                    <mxGeometry relative="1" as="geometry"/>
                </mxCell>
                <mxCell id="10" value="" style="endArrow=none;html=1;fontSize=18;" parent="1" edge="1">
                    <mxGeometry width="50" height="50" relative="1" as="geometry">
                        <mxPoint x="879" y="185" as="sourcePoint"/>
                        <mxPoint x="879" y="135" as="targetPoint"/>
                        <Array as="points">
                            <mxPoint x="879" y="155"/>
                        </Array>
                    </mxGeometry>
                </mxCell>
                <mxCell id="11" value="t" style="text;html=1;strokeColor=none;fillColor=none;align=center;verticalAlign=middle;whiteSpace=wrap;rounded=0;fontSize=27;" parent="1" vertex="1">
                    <mxGeometry x="707.5" y="150" width="62.5" height="30" as="geometry"/>
                </mxCell>
                <mxCell id="12" value="t + 1" style="text;html=1;strokeColor=none;fillColor=none;align=center;verticalAlign=middle;whiteSpace=wrap;rounded=0;fontSize=27;" parent="1" vertex="1">
                    <mxGeometry x="940" y="155" width="70" height="20" as="geometry"/>
                </mxCell>
                <mxCell id="1MW6c3-q1Xbj4bnQ09XF-12" value="1" style="text;html=1;resizable=0;autosize=1;align=center;verticalAlign=middle;points=[];fillColor=none;strokeColor=none;rounded=0;strokeWidth=11;fontSize=25;" parent="1" vertex="1">
                    <mxGeometry x="30" y="400" width="30" height="40" as="geometry"/>
                </mxCell>
                <mxCell id="1MW6c3-q1Xbj4bnQ09XF-13" value="2" style="text;html=1;resizable=0;autosize=1;align=center;verticalAlign=middle;points=[];fillColor=none;strokeColor=none;rounded=0;strokeWidth=11;fontSize=25;" parent="1" vertex="1">
                    <mxGeometry x="260" y="540" width="30" height="40" as="geometry"/>
                </mxCell>
                <mxCell id="1MW6c3-q1Xbj4bnQ09XF-14" value="3" style="text;html=1;resizable=0;autosize=1;align=center;verticalAlign=middle;points=[];fillColor=none;strokeColor=none;rounded=0;strokeWidth=11;fontSize=25;" parent="1" vertex="1">
                    <mxGeometry x="610" y="190" width="30" height="40" as="geometry"/>
                </mxCell>
                <mxCell id="1MW6c3-q1Xbj4bnQ09XF-15" value="4" style="text;html=1;resizable=0;autosize=1;align=center;verticalAlign=middle;points=[];fillColor=none;strokeColor=none;rounded=0;strokeWidth=11;fontSize=25;" parent="1" vertex="1">
                    <mxGeometry x="70" y="85" width="30" height="40" as="geometry"/>
                </mxCell>
                <mxCell id="9YnOVyLpmmODBUSkemQ_-32" value="" style="shape=table;html=1;whiteSpace=wrap;startSize=0;container=1;collapsible=0;childLayout=tableLayout;" parent="1" vertex="1">
                    <mxGeometry x="-730" y="1270" width="640" height="80" as="geometry"/>
                </mxCell>
                <mxCell id="9YnOVyLpmmODBUSkemQ_-33" style="shape=partialRectangle;html=1;whiteSpace=wrap;collapsible=0;dropTarget=0;pointerEvents=0;fillColor=none;top=0;left=0;bottom=0;right=0;points=[[0,0.5],[1,0.5]];portConstraint=eastwest;" parent="9YnOVyLpmmODBUSkemQ_-32" vertex="1">
                    <mxGeometry width="640" height="40" as="geometry"/>
                </mxCell>
                <mxCell id="9YnOVyLpmmODBUSkemQ_-34" value="0" style="shape=partialRectangle;html=1;whiteSpace=wrap;connectable=0;overflow=hidden;fillColor=none;top=0;left=0;bottom=0;right=0;" parent="9YnOVyLpmmODBUSkemQ_-33" vertex="1">
                    <mxGeometry width="81" height="40" as="geometry">
                        <mxRectangle width="81" height="40" as="alternateBounds"/>
                    </mxGeometry>
                </mxCell>
                <mxCell id="9YnOVyLpmmODBUSkemQ_-35" value="1" style="shape=partialRectangle;html=1;whiteSpace=wrap;connectable=0;overflow=hidden;fillColor=none;top=0;left=0;bottom=0;right=0;" parent="9YnOVyLpmmODBUSkemQ_-33" vertex="1">
                    <mxGeometry x="81" width="80" height="40" as="geometry">
                        <mxRectangle width="80" height="40" as="alternateBounds"/>
                    </mxGeometry>
                </mxCell>
                <mxCell id="9YnOVyLpmmODBUSkemQ_-36" value="2" style="shape=partialRectangle;html=1;whiteSpace=wrap;connectable=0;overflow=hidden;fillColor=none;top=0;left=0;bottom=0;right=0;" parent="9YnOVyLpmmODBUSkemQ_-33" vertex="1">
                    <mxGeometry x="161" width="78" height="40" as="geometry">
                        <mxRectangle width="78" height="40" as="alternateBounds"/>
                    </mxGeometry>
                </mxCell>
                <mxCell id="9YnOVyLpmmODBUSkemQ_-37" value="3" style="shape=partialRectangle;html=1;whiteSpace=wrap;connectable=0;overflow=hidden;fillColor=none;top=0;left=0;bottom=0;right=0;" parent="9YnOVyLpmmODBUSkemQ_-33" vertex="1">
                    <mxGeometry x="239" width="81" height="40" as="geometry">
                        <mxRectangle width="81" height="40" as="alternateBounds"/>
                    </mxGeometry>
                </mxCell>
                <mxCell id="9YnOVyLpmmODBUSkemQ_-38" value="4" style="shape=partialRectangle;html=1;whiteSpace=wrap;connectable=0;overflow=hidden;fillColor=none;top=0;left=0;bottom=0;right=0;" parent="9YnOVyLpmmODBUSkemQ_-33" vertex="1">
                    <mxGeometry x="320" width="81" height="40" as="geometry">
                        <mxRectangle width="81" height="40" as="alternateBounds"/>
                    </mxGeometry>
                </mxCell>
                <mxCell id="9YnOVyLpmmODBUSkemQ_-39" value="5" style="shape=partialRectangle;html=1;whiteSpace=wrap;connectable=0;overflow=hidden;fillColor=none;top=0;left=0;bottom=0;right=0;" parent="9YnOVyLpmmODBUSkemQ_-33" vertex="1">
                    <mxGeometry x="401" width="80" height="40" as="geometry">
                        <mxRectangle width="80" height="40" as="alternateBounds"/>
                    </mxGeometry>
                </mxCell>
                <mxCell id="9YnOVyLpmmODBUSkemQ_-40" value="6" style="shape=partialRectangle;html=1;whiteSpace=wrap;connectable=0;overflow=hidden;fillColor=none;top=0;left=0;bottom=0;right=0;" parent="9YnOVyLpmmODBUSkemQ_-33" vertex="1">
                    <mxGeometry x="481" width="78" height="40" as="geometry">
                        <mxRectangle width="78" height="40" as="alternateBounds"/>
                    </mxGeometry>
                </mxCell>
                <mxCell id="9YnOVyLpmmODBUSkemQ_-41" value="7" style="shape=partialRectangle;html=1;whiteSpace=wrap;connectable=0;overflow=hidden;fillColor=none;top=0;left=0;bottom=0;right=0;" parent="9YnOVyLpmmODBUSkemQ_-33" vertex="1">
                    <mxGeometry x="559" width="81" height="40" as="geometry">
                        <mxRectangle width="81" height="40" as="alternateBounds"/>
                    </mxGeometry>
                </mxCell>
                <mxCell id="9YnOVyLpmmODBUSkemQ_-42" value="" style="shape=partialRectangle;html=1;whiteSpace=wrap;collapsible=0;dropTarget=0;pointerEvents=0;fillColor=none;top=0;left=0;bottom=0;right=0;points=[[0,0.5],[1,0.5]];portConstraint=eastwest;" parent="9YnOVyLpmmODBUSkemQ_-32" vertex="1">
                    <mxGeometry y="40" width="640" height="40" as="geometry"/>
                </mxCell>
                <mxCell id="9YnOVyLpmmODBUSkemQ_-43" value="1/8" style="shape=partialRectangle;html=1;whiteSpace=wrap;connectable=0;overflow=hidden;fillColor=none;top=0;left=0;bottom=0;right=0;" parent="9YnOVyLpmmODBUSkemQ_-42" vertex="1">
                    <mxGeometry width="81" height="40" as="geometry">
                        <mxRectangle width="81" height="40" as="alternateBounds"/>
                    </mxGeometry>
                </mxCell>
                <mxCell id="9YnOVyLpmmODBUSkemQ_-44" value="1/8" style="shape=partialRectangle;html=1;whiteSpace=wrap;connectable=0;overflow=hidden;fillColor=none;top=0;left=0;bottom=0;right=0;" parent="9YnOVyLpmmODBUSkemQ_-42" vertex="1">
                    <mxGeometry x="81" width="80" height="40" as="geometry">
                        <mxRectangle width="80" height="40" as="alternateBounds"/>
                    </mxGeometry>
                </mxCell>
                <mxCell id="9YnOVyLpmmODBUSkemQ_-45" value="1/8" style="shape=partialRectangle;html=1;whiteSpace=wrap;connectable=0;overflow=hidden;fillColor=none;top=0;left=0;bottom=0;right=0;" parent="9YnOVyLpmmODBUSkemQ_-42" vertex="1">
                    <mxGeometry x="161" width="78" height="40" as="geometry">
                        <mxRectangle width="78" height="40" as="alternateBounds"/>
                    </mxGeometry>
                </mxCell>
                <mxCell id="9YnOVyLpmmODBUSkemQ_-46" value="1/8" style="shape=partialRectangle;html=1;whiteSpace=wrap;connectable=0;overflow=hidden;fillColor=none;top=0;left=0;bottom=0;right=0;" parent="9YnOVyLpmmODBUSkemQ_-42" vertex="1">
                    <mxGeometry x="239" width="81" height="40" as="geometry">
                        <mxRectangle width="81" height="40" as="alternateBounds"/>
                    </mxGeometry>
                </mxCell>
                <mxCell id="9YnOVyLpmmODBUSkemQ_-47" value="1/8" style="shape=partialRectangle;html=1;whiteSpace=wrap;connectable=0;overflow=hidden;fillColor=none;top=0;left=0;bottom=0;right=0;" parent="9YnOVyLpmmODBUSkemQ_-42" vertex="1">
                    <mxGeometry x="320" width="81" height="40" as="geometry">
                        <mxRectangle width="81" height="40" as="alternateBounds"/>
                    </mxGeometry>
                </mxCell>
                <mxCell id="9YnOVyLpmmODBUSkemQ_-48" value="1/8" style="shape=partialRectangle;html=1;whiteSpace=wrap;connectable=0;overflow=hidden;fillColor=none;top=0;left=0;bottom=0;right=0;" parent="9YnOVyLpmmODBUSkemQ_-42" vertex="1">
                    <mxGeometry x="401" width="80" height="40" as="geometry">
                        <mxRectangle width="80" height="40" as="alternateBounds"/>
                    </mxGeometry>
                </mxCell>
                <mxCell id="9YnOVyLpmmODBUSkemQ_-49" value="1/8" style="shape=partialRectangle;html=1;whiteSpace=wrap;connectable=0;overflow=hidden;fillColor=none;top=0;left=0;bottom=0;right=0;" parent="9YnOVyLpmmODBUSkemQ_-42" vertex="1">
                    <mxGeometry x="481" width="78" height="40" as="geometry">
                        <mxRectangle width="78" height="40" as="alternateBounds"/>
                    </mxGeometry>
                </mxCell>
                <mxCell id="9YnOVyLpmmODBUSkemQ_-50" value="1/8" style="shape=partialRectangle;html=1;whiteSpace=wrap;connectable=0;overflow=hidden;fillColor=none;top=0;left=0;bottom=0;right=0;" parent="9YnOVyLpmmODBUSkemQ_-42" vertex="1">
                    <mxGeometry x="559" width="81" height="40" as="geometry">
                        <mxRectangle width="81" height="40" as="alternateBounds"/>
                    </mxGeometry>
                </mxCell>
                <mxCell id="9YnOVyLpmmODBUSkemQ_-53" value="&lt;table border=&quot;1&quot; width=&quot;100%&quot; cellpadding=&quot;4&quot; style=&quot;width: 100% ; height: 100% ; border-collapse: collapse&quot;&gt;&lt;tbody&gt;&lt;tr style=&quot;background-color: #a7c942 ; color: #ffffff ; border: 1px solid #98bf21&quot;&gt;&lt;td&gt;&lt;font color=&quot;#000000&quot;&gt;&lt;br&gt;&lt;/font&gt;&lt;/td&gt;&lt;th style=&quot;text-align: center&quot;&gt;&lt;font color=&quot;#000000&quot;&gt;0&lt;/font&gt;&lt;/th&gt;&lt;th style=&quot;text-align: center&quot;&gt;&lt;font color=&quot;#000000&quot;&gt;1&lt;/font&gt;&lt;/th&gt;&lt;th style=&quot;text-align: center&quot;&gt;&lt;font color=&quot;#000000&quot;&gt;2&lt;/font&gt;&lt;/th&gt;&lt;td style=&quot;text-align: center&quot;&gt;&lt;b&gt;&lt;font color=&quot;#000000&quot;&gt;3&lt;/font&gt;&lt;/b&gt;&lt;/td&gt;&lt;td style=&quot;text-align: center&quot;&gt;&lt;b&gt;&lt;font color=&quot;#000000&quot;&gt;4&lt;/font&gt;&lt;/b&gt;&lt;/td&gt;&lt;td style=&quot;text-align: center&quot;&gt;&lt;b&gt;&lt;font color=&quot;#000000&quot;&gt;5&lt;/font&gt;&lt;/b&gt;&lt;/td&gt;&lt;td style=&quot;text-align: center&quot;&gt;&lt;b&gt;&lt;font color=&quot;#000000&quot;&gt;6&lt;/font&gt;&lt;/b&gt;&lt;/td&gt;&lt;td style=&quot;text-align: center&quot;&gt;&lt;b&gt;&lt;font color=&quot;#000000&quot;&gt;7&lt;/font&gt;&lt;/b&gt;&lt;/td&gt;&lt;/tr&gt;&lt;tr style=&quot;border: 1px solid #98bf21&quot;&gt;&lt;td&gt;&lt;font color=&quot;#000000&quot;&gt;&lt;b&gt;0&lt;/b&gt;&lt;/font&gt;&lt;/td&gt;&lt;td&gt;&lt;b&gt;&lt;font color=&quot;#000000&quot;&gt;0.729&lt;/font&gt;&lt;/b&gt;&lt;/td&gt;&lt;td&gt;&lt;font color=&quot;#000000&quot;&gt;0.081&lt;/font&gt;&lt;/td&gt;&lt;td&gt;&lt;font color=&quot;#000000&quot;&gt;0.081&lt;/font&gt;&lt;/td&gt;&lt;td&gt;&lt;font color=&quot;#000000&quot;&gt;0.009&lt;/font&gt;&lt;/td&gt;&lt;td&gt;&lt;font color=&quot;#000000&quot;&gt;0.081&lt;/font&gt;&lt;/td&gt;&lt;td&gt;&lt;font color=&quot;#000000&quot;&gt;0.009&lt;/font&gt;&lt;/td&gt;&lt;td&gt;&lt;font color=&quot;#000000&quot;&gt;0.009&lt;/font&gt;&lt;/td&gt;&lt;td&gt;&lt;font color=&quot;#000000&quot;&gt;0.001&lt;/font&gt;&lt;/td&gt;&lt;/tr&gt;&lt;tr&gt;&lt;td&gt;&lt;font color=&quot;#000000&quot;&gt;&lt;b&gt;1&lt;/b&gt;&lt;/font&gt;&lt;/td&gt;&lt;td&gt;&lt;font color=&quot;#000000&quot;&gt;0.081&lt;/font&gt;&lt;/td&gt;&lt;td&gt;&lt;font color=&quot;#000000&quot;&gt;0&lt;/font&gt;&lt;/td&gt;&lt;td&gt;&lt;font color=&quot;#000000&quot;&gt;0.009&lt;/font&gt;&lt;/td&gt;&lt;td&gt;&lt;font color=&quot;#000000&quot;&gt;0.081&lt;/font&gt;&lt;/td&gt;&lt;td&gt;&lt;font color=&quot;#000000&quot;&gt;0.009&lt;/font&gt;&lt;/td&gt;&lt;td&gt;&lt;font color=&quot;#000000&quot;&gt;0.081&lt;/font&gt;&lt;/td&gt;&lt;td&gt;&lt;b&gt;&lt;font color=&quot;#000000&quot;&gt;0.73&lt;/font&gt;&lt;/b&gt;&lt;/td&gt;&lt;td&gt;&lt;font color=&quot;#000000&quot;&gt;0.009&lt;/font&gt;&lt;/td&gt;&lt;/tr&gt;&lt;tr&gt;&lt;td&gt;&lt;font color=&quot;#000000&quot;&gt;&lt;b&gt;2&lt;/b&gt;&lt;/font&gt;&lt;/td&gt;&lt;td&gt;&lt;font color=&quot;#000000&quot;&gt;0.081&lt;/font&gt;&lt;/td&gt;&lt;td&gt;&lt;font color=&quot;#000000&quot;&gt;0.009&lt;/font&gt;&lt;/td&gt;&lt;td&gt;&lt;font color=&quot;#000000&quot;&gt;0&lt;/font&gt;&lt;/td&gt;&lt;td&gt;&lt;font color=&quot;#000000&quot;&gt;0.081&lt;/font&gt;&lt;/td&gt;&lt;td&gt;&lt;font color=&quot;#000000&quot;&gt;0.009&lt;/font&gt;&lt;/td&gt;&lt;td&gt;&lt;font color=&quot;#000000&quot;&gt;0.001&lt;/font&gt;&lt;/td&gt;&lt;td&gt;&lt;b&gt;&lt;font color=&quot;#000000&quot;&gt;0.81&lt;/font&gt;&lt;/b&gt;&lt;/td&gt;&lt;td&gt;&lt;font color=&quot;#000000&quot;&gt;0.009&lt;/font&gt;&lt;/td&gt;&lt;/tr&gt;&lt;tr style=&quot;background-color: #eaf2d3 ; border: 1px solid #98bf21&quot;&gt;&lt;td&gt;&lt;font color=&quot;#000000&quot;&gt;&lt;b&gt;3&lt;/b&gt;&lt;/font&gt;&lt;/td&gt;&lt;td&gt;&lt;font color=&quot;#000000&quot;&gt;0.009&lt;/font&gt;&lt;/td&gt;&lt;td&gt;&lt;font color=&quot;#000000&quot;&gt;0.081&lt;/font&gt;&lt;/td&gt;&lt;td&gt;&lt;font color=&quot;#000000&quot;&gt;0.081&lt;/font&gt;&lt;/td&gt;&lt;td&gt;&lt;font color=&quot;#000000&quot;&gt;0&lt;/font&gt;&lt;/td&gt;&lt;td&gt;&lt;font color=&quot;#000000&quot;&gt;0.001&lt;/font&gt;&lt;/td&gt;&lt;td&gt;&lt;font color=&quot;#000000&quot;&gt;0.009&lt;/font&gt;&lt;/td&gt;&lt;td&gt;&lt;font color=&quot;#000000&quot;&gt;0.009&lt;/font&gt;&lt;/td&gt;&lt;td&gt;&lt;b&gt;&lt;font color=&quot;#000000&quot;&gt;0.81&lt;/font&gt;&lt;/b&gt;&lt;/td&gt;&lt;/tr&gt;&lt;tr&gt;&lt;td&gt;&lt;font color=&quot;#000000&quot;&gt;&lt;b&gt;4&lt;/b&gt;&lt;/font&gt;&lt;/td&gt;&lt;td&gt;&lt;font color=&quot;#000000&quot;&gt;0.081&lt;/font&gt;&lt;/td&gt;&lt;td&gt;&lt;font color=&quot;#000000&quot;&gt;0.009&lt;/font&gt;&lt;/td&gt;&lt;td&gt;&lt;font color=&quot;#000000&quot;&gt;0.009&lt;/font&gt;&lt;/td&gt;&lt;td&gt;&lt;font color=&quot;#000000&quot;&gt;0.001&lt;/font&gt;&lt;/td&gt;&lt;td&gt;&lt;b&gt;&lt;font color=&quot;#000000&quot;&gt;0.729&lt;/font&gt;&lt;/b&gt;&lt;/td&gt;&lt;td&gt;&lt;font color=&quot;#000000&quot;&gt;0.081&lt;/font&gt;&lt;/td&gt;&lt;td&gt;&lt;font color=&quot;#000000&quot;&gt;0.081&lt;/font&gt;&lt;/td&gt;&lt;td&gt;&lt;font color=&quot;#000000&quot;&gt;0.009&lt;/font&gt;&lt;/td&gt;&lt;/tr&gt;&lt;tr&gt;&lt;td&gt;&lt;font color=&quot;#000000&quot;&gt;&lt;b&gt;5&lt;/b&gt;&lt;/font&gt;&lt;/td&gt;&lt;td&gt;&lt;font color=&quot;#000000&quot;&gt;0.009&lt;/font&gt;&lt;/td&gt;&lt;td&gt;&lt;font color=&quot;#000000&quot;&gt;0.081&lt;/font&gt;&lt;/td&gt;&lt;td&gt;&lt;font color=&quot;#000000&quot;&gt;0.001&lt;/font&gt;&lt;/td&gt;&lt;td&gt;&lt;font color=&quot;#000000&quot;&gt;0.009&lt;/font&gt;&lt;/td&gt;&lt;td&gt;&lt;b&gt;&lt;font color=&quot;#000000&quot;&gt;0.81&lt;/font&gt;&lt;/b&gt;&lt;/td&gt;&lt;td&gt;&lt;font color=&quot;#000000&quot;&gt;0&lt;/font&gt;&lt;/td&gt;&lt;td&gt;&lt;font color=&quot;#000000&quot;&gt;0.009&lt;/font&gt;&lt;/td&gt;&lt;td&gt;&lt;font color=&quot;#000000&quot;&gt;0.081&lt;/font&gt;&lt;/td&gt;&lt;/tr&gt;&lt;tr&gt;&lt;td&gt;&lt;font color=&quot;#000000&quot;&gt;&lt;b&gt;6&lt;/b&gt;&lt;/font&gt;&lt;/td&gt;&lt;td&gt;&lt;font color=&quot;#000000&quot;&gt;0.009&lt;/font&gt;&lt;/td&gt;&lt;td&gt;&lt;font color=&quot;#000000&quot;&gt;0.001&lt;/font&gt;&lt;/td&gt;&lt;td&gt;&lt;font color=&quot;#000000&quot;&gt;0.081&lt;/font&gt;&lt;/td&gt;&lt;td&gt;&lt;font color=&quot;#000000&quot;&gt;0.009&lt;/font&gt;&lt;/td&gt;&lt;td&gt;&lt;b&gt;&lt;font color=&quot;#000000&quot;&gt;0.81&lt;/font&gt;&lt;/b&gt;&lt;/td&gt;&lt;td&gt;&lt;font color=&quot;#000000&quot;&gt;0.009&lt;/font&gt;&lt;/td&gt;&lt;td&gt;&lt;font color=&quot;#000000&quot;&gt;0&lt;/font&gt;&lt;/td&gt;&lt;td&gt;&lt;font color=&quot;#000000&quot;&gt;0.081&lt;/font&gt;&lt;/td&gt;&lt;/tr&gt;&lt;tr&gt;&lt;td&gt;&lt;font color=&quot;#000000&quot;&gt;&lt;b&gt;7&lt;/b&gt;&lt;/font&gt;&lt;/td&gt;&lt;td&gt;&lt;font color=&quot;#000000&quot;&gt;0.001&lt;/font&gt;&lt;/td&gt;&lt;td&gt;&lt;font color=&quot;#000000&quot;&gt;0.009&lt;/font&gt;&lt;/td&gt;&lt;td&gt;&lt;font color=&quot;#000000&quot;&gt;0.009&lt;/font&gt;&lt;/td&gt;&lt;td&gt;&lt;font color=&quot;#000000&quot;&gt;0.081&lt;/font&gt;&lt;/td&gt;&lt;td&gt;&lt;font color=&quot;#000000&quot;&gt;0.009&lt;/font&gt;&lt;/td&gt;&lt;td&gt;&lt;b&gt;&lt;font color=&quot;#000000&quot;&gt;0.81&lt;/font&gt;&lt;/b&gt;&lt;/td&gt;&lt;td&gt;&lt;font color=&quot;#000000&quot;&gt;0.081&lt;/font&gt;&lt;/td&gt;&lt;td&gt;&lt;font color=&quot;#000000&quot;&gt;0&lt;/font&gt;&lt;/td&gt;&lt;/tr&gt;&lt;/tbody&gt;&lt;/table&gt;" style="text;html=1;strokeColor=#c0c0c0;fillColor=#ffffff;overflow=fill;rounded=0;glass=0;" parent="1" vertex="1">
                    <mxGeometry x="-30" y="1060" width="530" height="290" as="geometry"/>
                </mxCell>
                <mxCell id="9YnOVyLpmmODBUSkemQ_-55" value="" style="shape=flexArrow;endArrow=classic;html=1;rounded=0;edgeStyle=orthogonalEdgeStyle;" parent="1" edge="1">
                    <mxGeometry width="50" height="50" relative="1" as="geometry">
                        <mxPoint x="-50" y="1420" as="sourcePoint"/>
                        <mxPoint x="-50" y="1510" as="targetPoint"/>
                        <Array as="points">
                            <mxPoint x="-50" y="1460"/>
                            <mxPoint x="-50" y="1460"/>
                        </Array>
                    </mxGeometry>
                </mxCell>
                <mxCell id="9YnOVyLpmmODBUSkemQ_-56" value="n" style="text;html=1;strokeColor=none;fillColor=none;align=center;verticalAlign=middle;whiteSpace=wrap;rounded=0;shadow=0;sketch=0;" parent="1" vertex="1">
                    <mxGeometry x="-70" y="1430" width="100" height="60" as="geometry"/>
                </mxCell>
                <mxCell id="9YnOVyLpmmODBUSkemQ_-57" value="Steady state distribution" style="text;html=1;strokeColor=none;fillColor=none;align=center;verticalAlign=middle;whiteSpace=wrap;rounded=0;shadow=0;sketch=0;fontSize=22;" parent="1" vertex="1">
                    <mxGeometry x="-240" y="1010" width="290" height="30" as="geometry"/>
                </mxCell>
                <mxCell id="9YnOVyLpmmODBUSkemQ_-58" value="Control Policy" style="text;html=1;strokeColor=none;fillColor=none;align=center;verticalAlign=middle;whiteSpace=wrap;rounded=0;shadow=0;sketch=0;fontSize=22;" parent="1" vertex="1">
                    <mxGeometry x="735" y="1370" width="290" height="30" as="geometry"/>
                </mxCell>
                <mxCell id="9YnOVyLpmmODBUSkemQ_-60" value="100" style="ellipse;whiteSpace=wrap;html=1;" parent="1" vertex="1">
                    <mxGeometry x="1220" y="1030" width="60" height="40" as="geometry"/>
                </mxCell>
                <mxCell id="9YnOVyLpmmODBUSkemQ_-62" value="000" style="ellipse;whiteSpace=wrap;html=1;" parent="1" vertex="1">
                    <mxGeometry x="1170" y="1120" width="60" height="40" as="geometry"/>
                </mxCell>
                <mxCell id="9YnOVyLpmmODBUSkemQ_-64" value="010" style="ellipse;whiteSpace=wrap;html=1;" parent="1" vertex="1">
                    <mxGeometry x="1220" y="1290" width="60" height="40" as="geometry"/>
                </mxCell>
                <mxCell id="9YnOVyLpmmODBUSkemQ_-66" value="011" style="ellipse;whiteSpace=wrap;html=1;" parent="1" vertex="1">
                    <mxGeometry x="865" y="1035" width="60" height="40" as="geometry"/>
                </mxCell>
                <mxCell id="9YnOVyLpmmODBUSkemQ_-68" value="001" style="ellipse;whiteSpace=wrap;html=1;" parent="1" vertex="1">
                    <mxGeometry x="850" y="1120" width="60" height="40" as="geometry"/>
                </mxCell>
                <mxCell id="9YnOVyLpmmODBUSkemQ_-70" value="111" style="ellipse;whiteSpace=wrap;html=1;" parent="1" vertex="1">
                    <mxGeometry x="850" y="1210" width="60" height="40" as="geometry"/>
                </mxCell>
                <mxCell id="9YnOVyLpmmODBUSkemQ_-72" value="101" style="ellipse;whiteSpace=wrap;html=1;" parent="1" vertex="1">
                    <mxGeometry x="850" y="1290" width="60" height="40" as="geometry"/>
                </mxCell>
                <mxCell id="9YnOVyLpmmODBUSkemQ_-73" value="110" style="ellipse;whiteSpace=wrap;html=1;" parent="1" vertex="1">
                    <mxGeometry x="1220" y="1210" width="60" height="40" as="geometry"/>
                </mxCell>
                <mxCell id="9YnOVyLpmmODBUSkemQ_-77" value="" style="curved=1;endArrow=classic;html=1;rounded=0;fontSize=22;edgeStyle=orthogonalEdgeStyle;entryX=0;entryY=0.5;entryDx=0;entryDy=0;exitX=0.5;exitY=0;exitDx=0;exitDy=0;" parent="1" source="9YnOVyLpmmODBUSkemQ_-70" target="9YnOVyLpmmODBUSkemQ_-62" edge="1">
                    <mxGeometry width="50" height="50" relative="1" as="geometry">
                        <mxPoint x="910" y="1270" as="sourcePoint"/>
                        <mxPoint x="960" y="1220" as="targetPoint"/>
                        <Array as="points">
                            <mxPoint x="880" y="1210"/>
                            <mxPoint x="1070" y="1210"/>
                            <mxPoint x="1070" y="1140"/>
                        </Array>
                    </mxGeometry>
                </mxCell>
                <mxCell id="9YnOVyLpmmODBUSkemQ_-79" value="" style="curved=1;endArrow=classic;html=1;rounded=0;fontSize=22;edgeStyle=orthogonalEdgeStyle;exitX=0.5;exitY=0;exitDx=0;exitDy=0;entryX=0.5;entryY=1;entryDx=0;entryDy=0;" parent="1" source="9YnOVyLpmmODBUSkemQ_-72" target="9YnOVyLpmmODBUSkemQ_-62" edge="1">
                    <mxGeometry width="50" height="50" relative="1" as="geometry">
                        <mxPoint x="1090" y="1180" as="sourcePoint"/>
                        <mxPoint x="1260" y="1160" as="targetPoint"/>
                        <Array as="points">
                            <mxPoint x="880" y="1260"/>
                            <mxPoint x="1200" y="1260"/>
                        </Array>
                    </mxGeometry>
                </mxCell>
                <mxCell id="9YnOVyLpmmODBUSkemQ_-80" value="" style="curved=1;endArrow=classic;html=1;rounded=0;fontSize=22;edgeStyle=orthogonalEdgeStyle;exitX=0.5;exitY=0;exitDx=0;exitDy=0;entryX=0.5;entryY=1;entryDx=0;entryDy=0;" parent="1" source="9YnOVyLpmmODBUSkemQ_-64" target="9YnOVyLpmmODBUSkemQ_-70" edge="1">
                    <mxGeometry width="50" height="50" relative="1" as="geometry">
                        <mxPoint x="1290" y="1310" as="sourcePoint"/>
                        <mxPoint x="1340" y="1260" as="targetPoint"/>
                        <Array as="points">
                            <mxPoint x="1250" y="1280"/>
                            <mxPoint x="880" y="1280"/>
                        </Array>
                    </mxGeometry>
                </mxCell>
                <mxCell id="9YnOVyLpmmODBUSkemQ_-81" value="" style="curved=1;endArrow=classic;html=1;rounded=0;fontSize=22;edgeStyle=orthogonalEdgeStyle;exitX=1;exitY=0.5;exitDx=0;exitDy=0;" parent="1" source="9YnOVyLpmmODBUSkemQ_-73" edge="1">
                    <mxGeometry width="50" height="50" relative="1" as="geometry">
                        <mxPoint x="1260" y="1260" as="sourcePoint"/>
                        <mxPoint x="1280" y="1050" as="targetPoint"/>
                        <Array as="points">
                            <mxPoint x="1310" y="1230"/>
                            <mxPoint x="1310" y="1050"/>
                        </Array>
                    </mxGeometry>
                </mxCell>
                <mxCell id="9YnOVyLpmmODBUSkemQ_-82" value="" style="curved=1;endArrow=classic;html=1;rounded=0;fontSize=22;edgeStyle=orthogonalEdgeStyle;exitX=0.5;exitY=0;exitDx=0;exitDy=0;entryX=1;entryY=0.5;entryDx=0;entryDy=0;" parent="1" source="9YnOVyLpmmODBUSkemQ_-60" target="9YnOVyLpmmODBUSkemQ_-60" edge="1">
                    <mxGeometry width="50" height="50" relative="1" as="geometry">
                        <mxPoint x="1200" y="1000" as="sourcePoint"/>
                        <mxPoint x="1250" y="950" as="targetPoint"/>
                        <Array as="points">
                            <mxPoint x="1250" y="1010"/>
                            <mxPoint x="1280" y="1010"/>
                        </Array>
                    </mxGeometry>
                </mxCell>
                <mxCell id="9YnOVyLpmmODBUSkemQ_-83" value="" style="curved=1;endArrow=classic;html=1;rounded=0;fontSize=22;edgeStyle=orthogonalEdgeStyle;exitX=0.5;exitY=0;exitDx=0;exitDy=0;entryX=1;entryY=0.5;entryDx=0;entryDy=0;" parent="1" source="9YnOVyLpmmODBUSkemQ_-68" target="9YnOVyLpmmODBUSkemQ_-62" edge="1">
                    <mxGeometry width="50" height="50" relative="1" as="geometry">
                        <mxPoint x="1090" y="1180" as="sourcePoint"/>
                        <mxPoint x="1140" y="1130" as="targetPoint"/>
                        <Array as="points">
                            <mxPoint x="880" y="1080"/>
                            <mxPoint x="1230" y="1080"/>
                        </Array>
                    </mxGeometry>
                </mxCell>
                <mxCell id="9YnOVyLpmmODBUSkemQ_-84" value="" style="curved=1;endArrow=classic;html=1;rounded=0;fontSize=22;edgeStyle=orthogonalEdgeStyle;exitX=0.5;exitY=0;exitDx=0;exitDy=0;entryX=0;entryY=0.5;entryDx=0;entryDy=0;" parent="1" source="9YnOVyLpmmODBUSkemQ_-62" target="9YnOVyLpmmODBUSkemQ_-60" edge="1">
                    <mxGeometry width="50" height="50" relative="1" as="geometry">
                        <mxPoint x="1140" y="1050" as="sourcePoint"/>
                        <mxPoint x="1190" y="1000" as="targetPoint"/>
                        <Array as="points">
                            <mxPoint x="1200" y="1050"/>
                        </Array>
                    </mxGeometry>
                </mxCell>
                <mxCell id="9YnOVyLpmmODBUSkemQ_-85" value="" style="curved=1;endArrow=classic;html=1;rounded=0;fontSize=22;edgeStyle=orthogonalEdgeStyle;exitX=0.5;exitY=0;exitDx=0;exitDy=0;entryX=1;entryY=0.5;entryDx=0;entryDy=0;" parent="1" source="9YnOVyLpmmODBUSkemQ_-66" target="9YnOVyLpmmODBUSkemQ_-66" edge="1">
                    <mxGeometry width="50" height="50" relative="1" as="geometry">
                        <mxPoint x="995" y="1005" as="sourcePoint"/>
                        <mxPoint x="1045" y="955" as="targetPoint"/>
                        <Array as="points">
                            <mxPoint x="895" y="1025"/>
                            <mxPoint x="945" y="1025"/>
                            <mxPoint x="945" y="1055"/>
                        </Array>
                    </mxGeometry>
                </mxCell>
                <mxCell id="9YnOVyLpmmODBUSkemQ_-86" value="x2 - control gene&lt;br&gt;x3 - biomarker" style="text;html=1;strokeColor=none;fillColor=none;align=center;verticalAlign=middle;whiteSpace=wrap;rounded=0;shadow=0;sketch=0;fontSize=22;" parent="1" vertex="1">
                    <mxGeometry x="1370" y="1150" width="180" height="30" as="geometry"/>
                </mxCell>
                <mxCell id="9YnOVyLpmmODBUSkemQ_-87" value="Undesired states" style="text;html=1;strokeColor=none;fillColor=none;align=center;verticalAlign=middle;whiteSpace=wrap;rounded=0;shadow=0;sketch=0;fontSize=17;" parent="1" vertex="1">
                    <mxGeometry x="720" y="1010" width="140" height="30" as="geometry"/>
                </mxCell>
                <mxCell id="9YnOVyLpmmODBUSkemQ_-88" value="Desired states" style="text;html=1;strokeColor=none;fillColor=none;align=center;verticalAlign=middle;whiteSpace=wrap;rounded=0;shadow=0;sketch=0;fontSize=17;" parent="1" vertex="1">
                    <mxGeometry x="1370" y="1010" width="140" height="30" as="geometry"/>
                </mxCell>
                <mxCell id="9YnOVyLpmmODBUSkemQ_-90" value="" style="shape=table;html=1;whiteSpace=wrap;startSize=0;container=1;collapsible=0;childLayout=tableLayout;" parent="1" vertex="1">
                    <mxGeometry x="770" y="1410" width="640" height="80" as="geometry"/>
                </mxCell>
                <mxCell id="9YnOVyLpmmODBUSkemQ_-91" style="shape=partialRectangle;html=1;whiteSpace=wrap;collapsible=0;dropTarget=0;pointerEvents=0;fillColor=none;top=0;left=0;bottom=0;right=0;points=[[0,0.5],[1,0.5]];portConstraint=eastwest;" parent="9YnOVyLpmmODBUSkemQ_-90" vertex="1">
                    <mxGeometry width="640" height="40" as="geometry"/>
                </mxCell>
                <mxCell id="9YnOVyLpmmODBUSkemQ_-92" value="0" style="shape=partialRectangle;html=1;whiteSpace=wrap;connectable=0;overflow=hidden;fillColor=none;top=0;left=0;bottom=0;right=0;" parent="9YnOVyLpmmODBUSkemQ_-91" vertex="1">
                    <mxGeometry width="81" height="40" as="geometry">
                        <mxRectangle width="81" height="40" as="alternateBounds"/>
                    </mxGeometry>
                </mxCell>
                <mxCell id="9YnOVyLpmmODBUSkemQ_-93" value="1" style="shape=partialRectangle;html=1;whiteSpace=wrap;connectable=0;overflow=hidden;fillColor=none;top=0;left=0;bottom=0;right=0;" parent="9YnOVyLpmmODBUSkemQ_-91" vertex="1">
                    <mxGeometry x="81" width="80" height="40" as="geometry">
                        <mxRectangle width="80" height="40" as="alternateBounds"/>
                    </mxGeometry>
                </mxCell>
                <mxCell id="9YnOVyLpmmODBUSkemQ_-94" value="2" style="shape=partialRectangle;html=1;whiteSpace=wrap;connectable=0;overflow=hidden;fillColor=none;top=0;left=0;bottom=0;right=0;" parent="9YnOVyLpmmODBUSkemQ_-91" vertex="1">
                    <mxGeometry x="161" width="78" height="40" as="geometry">
                        <mxRectangle width="78" height="40" as="alternateBounds"/>
                    </mxGeometry>
                </mxCell>
                <mxCell id="9YnOVyLpmmODBUSkemQ_-95" value="3" style="shape=partialRectangle;html=1;whiteSpace=wrap;connectable=0;overflow=hidden;fillColor=none;top=0;left=0;bottom=0;right=0;" parent="9YnOVyLpmmODBUSkemQ_-91" vertex="1">
                    <mxGeometry x="239" width="81" height="40" as="geometry">
                        <mxRectangle width="81" height="40" as="alternateBounds"/>
                    </mxGeometry>
                </mxCell>
                <mxCell id="9YnOVyLpmmODBUSkemQ_-96" value="4" style="shape=partialRectangle;html=1;whiteSpace=wrap;connectable=0;overflow=hidden;fillColor=none;top=0;left=0;bottom=0;right=0;" parent="9YnOVyLpmmODBUSkemQ_-91" vertex="1">
                    <mxGeometry x="320" width="81" height="40" as="geometry">
                        <mxRectangle width="81" height="40" as="alternateBounds"/>
                    </mxGeometry>
                </mxCell>
                <mxCell id="9YnOVyLpmmODBUSkemQ_-97" value="5" style="shape=partialRectangle;html=1;whiteSpace=wrap;connectable=0;overflow=hidden;fillColor=none;top=0;left=0;bottom=0;right=0;" parent="9YnOVyLpmmODBUSkemQ_-91" vertex="1">
                    <mxGeometry x="401" width="80" height="40" as="geometry">
                        <mxRectangle width="80" height="40" as="alternateBounds"/>
                    </mxGeometry>
                </mxCell>
                <mxCell id="9YnOVyLpmmODBUSkemQ_-98" value="6" style="shape=partialRectangle;html=1;whiteSpace=wrap;connectable=0;overflow=hidden;fillColor=none;top=0;left=0;bottom=0;right=0;" parent="9YnOVyLpmmODBUSkemQ_-91" vertex="1">
                    <mxGeometry x="481" width="78" height="40" as="geometry">
                        <mxRectangle width="78" height="40" as="alternateBounds"/>
                    </mxGeometry>
                </mxCell>
                <mxCell id="9YnOVyLpmmODBUSkemQ_-99" value="7" style="shape=partialRectangle;html=1;whiteSpace=wrap;connectable=0;overflow=hidden;fillColor=none;top=0;left=0;bottom=0;right=0;" parent="9YnOVyLpmmODBUSkemQ_-91" vertex="1">
                    <mxGeometry x="559" width="81" height="40" as="geometry">
                        <mxRectangle width="81" height="40" as="alternateBounds"/>
                    </mxGeometry>
                </mxCell>
                <mxCell id="9YnOVyLpmmODBUSkemQ_-100" value="" style="shape=partialRectangle;html=1;whiteSpace=wrap;collapsible=0;dropTarget=0;pointerEvents=0;fillColor=none;top=0;left=0;bottom=0;right=0;points=[[0,0.5],[1,0.5]];portConstraint=eastwest;" parent="9YnOVyLpmmODBUSkemQ_-90" vertex="1">
                    <mxGeometry y="40" width="640" height="40" as="geometry"/>
                </mxCell>
                <mxCell id="9YnOVyLpmmODBUSkemQ_-101" value="0" style="shape=partialRectangle;html=1;whiteSpace=wrap;connectable=0;overflow=hidden;fillColor=none;top=0;left=0;bottom=0;right=0;" parent="9YnOVyLpmmODBUSkemQ_-100" vertex="1">
                    <mxGeometry width="81" height="40" as="geometry">
                        <mxRectangle width="81" height="40" as="alternateBounds"/>
                    </mxGeometry>
                </mxCell>
                <mxCell id="9YnOVyLpmmODBUSkemQ_-102" value="0" style="shape=partialRectangle;html=1;whiteSpace=wrap;connectable=0;overflow=hidden;fillColor=none;top=0;left=0;bottom=0;right=0;" parent="9YnOVyLpmmODBUSkemQ_-100" vertex="1">
                    <mxGeometry x="81" width="80" height="40" as="geometry">
                        <mxRectangle width="80" height="40" as="alternateBounds"/>
                    </mxGeometry>
                </mxCell>
                <mxCell id="9YnOVyLpmmODBUSkemQ_-103" value="1" style="shape=partialRectangle;html=1;whiteSpace=wrap;connectable=0;overflow=hidden;fillColor=none;top=0;left=0;bottom=0;right=0;" parent="9YnOVyLpmmODBUSkemQ_-100" vertex="1">
                    <mxGeometry x="161" width="78" height="40" as="geometry">
                        <mxRectangle width="78" height="40" as="alternateBounds"/>
                    </mxGeometry>
                </mxCell>
                <mxCell id="9YnOVyLpmmODBUSkemQ_-104" value="1" style="shape=partialRectangle;html=1;whiteSpace=wrap;connectable=0;overflow=hidden;fillColor=none;top=0;left=0;bottom=0;right=0;" parent="9YnOVyLpmmODBUSkemQ_-100" vertex="1">
                    <mxGeometry x="239" width="81" height="40" as="geometry">
                        <mxRectangle width="81" height="40" as="alternateBounds"/>
                    </mxGeometry>
                </mxCell>
                <mxCell id="9YnOVyLpmmODBUSkemQ_-105" value="0" style="shape=partialRectangle;html=1;whiteSpace=wrap;connectable=0;overflow=hidden;fillColor=none;top=0;left=0;bottom=0;right=0;" parent="9YnOVyLpmmODBUSkemQ_-100" vertex="1">
                    <mxGeometry x="320" width="81" height="40" as="geometry">
                        <mxRectangle width="81" height="40" as="alternateBounds"/>
                    </mxGeometry>
                </mxCell>
                <mxCell id="9YnOVyLpmmODBUSkemQ_-106" value="0" style="shape=partialRectangle;html=1;whiteSpace=wrap;connectable=0;overflow=hidden;fillColor=none;top=0;left=0;bottom=0;right=0;" parent="9YnOVyLpmmODBUSkemQ_-100" vertex="1">
                    <mxGeometry x="401" width="80" height="40" as="geometry">
                        <mxRectangle width="80" height="40" as="alternateBounds"/>
                    </mxGeometry>
                </mxCell>
                <mxCell id="9YnOVyLpmmODBUSkemQ_-107" value="1" style="shape=partialRectangle;html=1;whiteSpace=wrap;connectable=0;overflow=hidden;fillColor=none;top=0;left=0;bottom=0;right=0;" parent="9YnOVyLpmmODBUSkemQ_-100" vertex="1">
                    <mxGeometry x="481" width="78" height="40" as="geometry">
                        <mxRectangle width="78" height="40" as="alternateBounds"/>
                    </mxGeometry>
                </mxCell>
                <mxCell id="9YnOVyLpmmODBUSkemQ_-108" value="1" style="shape=partialRectangle;html=1;whiteSpace=wrap;connectable=0;overflow=hidden;fillColor=none;top=0;left=0;bottom=0;right=0;" parent="9YnOVyLpmmODBUSkemQ_-100" vertex="1">
                    <mxGeometry x="559" width="81" height="40" as="geometry">
                        <mxRectangle width="81" height="40" as="alternateBounds"/>
                    </mxGeometry>
                </mxCell>
                <mxCell id="9YnOVyLpmmODBUSkemQ_-109" value="decision rules" style="text;html=1;strokeColor=none;fillColor=none;align=center;verticalAlign=middle;whiteSpace=wrap;rounded=0;shadow=0;sketch=0;fontSize=17;" parent="1" vertex="1">
                    <mxGeometry x="1410" y="1460" width="160" height="30" as="geometry"/>
                </mxCell>
            </root>
        </mxGraphModel>
    </diagram>
</mxfile>